<svg xmlns="http://www.w3.org/2000/svg" viewBox="0 0 215.8 48.0" width="215.8" height="48.0" role="img" aria-label="Партнёрка"><title>Партнёрка</title><g><path d="M35.5 8.5 L12.5 39.5" stroke="#4B5BEA" stroke-width="6" stroke-linecap="round"/><circle cx="12.5" cy="13" r="7" fill="#090B22"/><circle cx="35.5" cy="35" r="7" fill="#22C55E"/></g><path transform="translate(60 34.61)" d="M2.37 0.0V-21.21H19.71V0.0H15.959999999999999V-17.82H6.12V0.0Z M28.259999999999998 0.21Q27.179999999999996 0.21 26.174999999999997 -0.09000000000000001Q25.169999999999998 -0.39 24.389999999999997 -0.9750000000000001Q23.609999999999996 -1.56 23.159999999999997 -2.4450000000000003Q22.709999999999997 -3.33 22.709999999999997 -4.53Q22.709999999999997 -6.06 23.294999999999995 -7.035Q23.879999999999995 -8.01 24.869999999999997 -8.52Q25.859999999999996 -9.03 27.179999999999996 -9.225Q28.499999999999996 -9.42 29.939999999999998 -9.42H33.12Q33.12 -10.469999999999999 32.78999999999999 -11.25Q32.459999999999994 -12.03 31.754999999999995 -12.465Q31.049999999999997 -12.9 29.879999999999995 -12.9Q29.249999999999996 -12.9 28.634999999999998 -12.735Q28.019999999999996 -12.57 27.599999999999994 -12.24Q27.179999999999996 -11.91 26.999999999999996 -11.37H23.249999999999996Q23.459999999999997 -12.6 24.089999999999996 -13.485Q24.719999999999995 -14.37 25.679999999999996 -14.924999999999999Q26.639999999999997 -15.479999999999999 27.794999999999995 -15.765Q28.949999999999996 -16.05 30.15 -16.05Q32.42999999999999 -16.05 33.85499999999999 -15.15Q35.279999999999994 -14.25 35.97 -12.57Q36.66 -10.889999999999999 36.66 -8.52V0.0H33.419999999999995L33.33 -1.92Q32.669999999999995 -1.08 31.814999999999998 -0.615Q30.959999999999997 -0.15 30.044999999999995 0.03Q29.129999999999995 0.21 28.259999999999998 0.21ZM29.039999999999996 -2.76Q30.269999999999996 -2.76 31.184999999999995 -3.21Q32.099999999999994 -3.6599999999999997 32.61 -4.47Q33.12 -5.279999999999999 33.12 -6.33V-6.84H29.669999999999995Q29.039999999999996 -6.84 28.439999999999998 -6.779999999999999Q27.839999999999996 -6.72 27.359999999999996 -6.525Q26.879999999999995 -6.33 26.609999999999996 -5.9399999999999995Q26.339999999999996 -5.55 26.339999999999996 -4.859999999999999Q26.339999999999996 -4.17 26.714999999999996 -3.705Q27.089999999999996 -3.2399999999999998 27.705 -3.0Q28.319999999999997 -2.76 29.039999999999996 -2.76Z M39.54 5.819999999999999V-15.809999999999999H42.959999999999994L43.13999999999999 -13.65Q44.06999999999999 -14.91 45.419999999999995 -15.48Q46.769999999999996 -16.05 48.269999999999996 -16.05Q50.55 -16.05 52.08 -14.969999999999999Q53.61 -13.889999999999999 54.36 -12.044999999999998Q55.11 -10.2 55.11 -7.89Q55.11 -5.58 54.345 -3.75Q53.58 -1.92 52.004999999999995 -0.855Q50.42999999999999 0.21 47.97 0.21Q46.83 0.21 45.92999999999999 -0.045Q45.029999999999994 -0.3 44.35499999999999 -0.735Q43.67999999999999 -1.17 43.199999999999996 -1.68V5.819999999999999ZM47.459999999999994 -3.09Q48.989999999999995 -3.09 49.86 -3.7649999999999997Q50.73 -4.4399999999999995 51.12 -5.535Q51.51 -6.63 51.51 -7.859999999999999Q51.51 -9.15 51.105 -10.26Q50.699999999999996 -11.37 49.8 -12.059999999999999Q48.89999999999999 -12.75 47.39999999999999 -12.75Q46.019999999999996 -12.75 45.074999999999996 -12.075Q44.129999999999995 -11.4 43.64999999999999 -10.29Q43.169999999999995 -9.18 43.169999999999995 -7.89Q43.169999999999995 -6.569999999999999 43.61999999999999 -5.475Q44.06999999999999 -4.38 45.029999999999994 -3.735Q45.989999999999995 -3.09 47.459999999999994 -3.09Z M61.05 0.0V-12.57H55.83V-15.809999999999999H69.96V-12.57H64.71V0.0Z M71.39999999999999 0.0V-15.809999999999999H75.06V-9.45H81.66V-15.809999999999999H85.32V0.0H81.66V-6.18H75.06V0.0Z M95.33999999999999 0.21Q92.88 0.21 91.155 -0.8099999999999999Q89.42999999999999 -1.8299999999999998 88.54499999999999 -3.645Q87.66 -5.46 87.66 -7.859999999999999Q87.66 -10.26 88.57499999999999 -12.105Q89.49 -13.95 91.215 -15.0Q92.94 -16.05 95.36999999999999 -16.05Q97.11 -16.05 98.46000000000001 -15.435Q99.81 -14.82 100.74 -13.725Q101.66999999999999 -12.629999999999999 102.11999999999999 -11.204999999999998Q102.57 -9.78 102.53999999999999 -8.16Q102.53999999999999 -7.8 102.50999999999999 -7.455Q102.47999999999999 -7.109999999999999 102.41999999999999 -6.72H91.32Q91.41 -5.67 91.875 -4.8Q92.33999999999999 -3.9299999999999997 93.195 -3.42Q94.05 -2.9099999999999997 95.33999999999999 -2.9099999999999997Q96.08999999999999 -2.9099999999999997 96.78 -3.1049999999999995Q97.47 -3.3 97.995 -3.69Q98.52 -4.08 98.69999999999999 -4.68H102.36Q101.97 -2.9699999999999998 100.91999999999999 -1.89Q99.86999999999999 -0.8099999999999999 98.41499999999999 -0.3Q96.96 0.21 95.33999999999999 0.21ZM99.0 -9.45Q99.0 -10.44 98.55 -11.25Q98.1 -12.059999999999999 97.27499999999999 -12.524999999999999Q96.44999999999999 -12.99 95.28 -12.99Q94.02 -12.99 93.17999999999999 -12.48Q92.33999999999999 -11.969999999999999 91.88999999999999 -11.16Q91.44 -10.35 91.38 -9.45ZM98.66999999999999 -17.759999999999998Q97.8 -17.759999999999998 97.155 -18.314999999999998Q96.50999999999999 -18.87 96.50999999999999 -19.86Q96.50999999999999 -20.849999999999998 97.155 -21.435Q97.8 -22.02 98.69999999999999 -22.02Q99.57 -22.02 100.215 -21.435Q100.86 -20.849999999999998 100.86 -19.86Q100.86 -18.87 100.215 -18.314999999999998Q99.57 -17.759999999999998 98.66999999999999 -17.759999999999998ZM91.53 -17.759999999999998Q90.63 -17.759999999999998 90.0 -18.314999999999998Q89.36999999999999 -18.87 89.36999999999999 -19.86Q89.36999999999999 -20.849999999999998 90.01499999999999 -21.435Q90.66 -22.02 91.53 -22.02Q92.42999999999999 -22.02 93.07499999999999 -21.435Q93.72 -20.849999999999998 93.72 -19.86Q93.72 -18.87 93.07499999999999 -18.314999999999998Q92.42999999999999 -17.759999999999998 91.53 -17.759999999999998Z M104.87999999999998 5.819999999999999V-15.809999999999999H108.29999999999998L108.47999999999999 -13.65Q109.40999999999998 -14.91 110.75999999999999 -15.48Q112.10999999999999 -16.05 113.60999999999999 -16.05Q115.88999999999999 -16.05 117.41999999999999 -14.969999999999999Q118.94999999999999 -13.889999999999999 119.69999999999999 -12.044999999999998Q120.44999999999999 -10.2 120.44999999999999 -7.89Q120.44999999999999 -5.58 119.68499999999999 -3.75Q118.91999999999999 -1.92 117.34499999999998 -0.855Q115.76999999999998 0.21 113.30999999999999 0.21Q112.16999999999999 0.21 111.26999999999998 -0.045Q110.36999999999999 -0.3 109.695 -0.735Q109.01999999999998 -1.17 108.53999999999999 -1.68V5.819999999999999ZM112.79999999999998 -3.09Q114.32999999999998 -3.09 115.19999999999999 -3.7649999999999997Q116.06999999999998 -4.4399999999999995 116.45999999999998 -5.535Q116.84999999999998 -6.63 116.84999999999998 -7.859999999999999Q116.84999999999998 -9.15 116.445 -10.26Q116.03999999999999 -11.37 115.13999999999999 -12.059999999999999Q114.23999999999998 -12.75 112.73999999999998 -12.75Q111.35999999999999 -12.75 110.41499999999999 -12.075Q109.46999999999998 -11.4 108.98999999999998 -10.29Q108.50999999999999 -9.18 108.50999999999999 -7.89Q108.50999999999999 -6.569999999999999 108.95999999999998 -5.475Q109.40999999999998 -4.38 110.36999999999998 -3.735Q111.32999999999998 -3.09 112.79999999999998 -3.09Z M122.66999999999997 0.0V-15.809999999999999H126.32999999999998V-9.48H128.84999999999997L132.95999999999998 -15.809999999999999H137.09999999999997L132.02999999999997 -8.34L137.27999999999997 0.0H133.04999999999998L129.11999999999998 -6.24H126.32999999999998V0.0Z M143.67 0.21Q142.58999999999997 0.21 141.58499999999998 -0.09000000000000001Q140.57999999999998 -0.39 139.79999999999998 -0.9750000000000001Q139.01999999999998 -1.56 138.57 -2.4450000000000003Q138.11999999999998 -3.33 138.11999999999998 -4.53Q138.11999999999998 -6.06 138.70499999999998 -7.035Q139.29 -8.01 140.27999999999997 -8.52Q141.26999999999998 -9.03 142.58999999999997 -9.225Q143.91 -9.42 145.35 -9.42H148.52999999999997Q148.52999999999997 -10.469999999999999 148.2 -11.25Q147.86999999999998 -12.03 147.16499999999996 -12.465Q146.45999999999998 -12.9 145.29 -12.9Q144.66 -12.9 144.045 -12.735Q143.42999999999998 -12.57 143.01 -12.24Q142.58999999999997 -11.91 142.41 -11.37H138.66Q138.86999999999998 -12.6 139.5 -13.485Q140.13 -14.37 141.08999999999997 -14.924999999999999Q142.04999999999998 -15.479999999999999 143.20499999999998 -15.765Q144.35999999999999 -16.05 145.55999999999997 -16.05Q147.83999999999997 -16.05 149.265 -15.15Q150.69 -14.25 151.38 -12.57Q152.07 -10.889999999999999 152.07 -8.52V0.0H148.82999999999998L148.73999999999998 -1.92Q148.07999999999998 -1.08 147.22499999999997 -0.615Q146.36999999999998 -0.15 145.45499999999998 0.03Q144.54 0.21 143.67 0.21ZM144.45 -2.76Q145.67999999999998 -2.76 146.59499999999997 -3.21Q147.51 -3.6599999999999997 148.01999999999998 -4.47Q148.52999999999997 -5.279999999999999 148.52999999999997 -6.33V-6.84H145.07999999999998Q144.45 -6.84 143.85 -6.779999999999999Q143.25 -6.72 142.76999999999998 -6.525Q142.29 -6.33 142.01999999999998 -5.9399999999999995Q141.75 -5.55 141.75 -4.859999999999999Q141.75 -4.17 142.125 -3.705Q142.5 -3.2399999999999998 143.115 -3.0Q143.73 -2.76 144.45 -2.76Z" fill="#090B22"/></svg>